<svg width="30px" height="30px" viewBox="0 0 30 30">
  <path d="M9.32227 5L9.32027 5Q9.25013 5 9.18032 5.00688Q9.11052 5.01375 9.04173 5.02743Q8.97293 5.04112 8.90581 5.06148Q8.83869 5.08184 8.77389 5.10868Q8.70909 5.13552 8.64723 5.16859Q8.58537 5.20165 8.52705 5.24062Q8.46873 5.27959 8.41451 5.32408Q8.36029 5.36858 8.31069 5.41818Q8.2611 5.46778 8.2166 5.52199Q8.1721 5.57621 8.13313 5.63453Q8.09417 5.69285 8.0611 5.75471Q8.02804 5.81657 8.0012 5.88137Q7.97436 5.94618 7.95399 6.0133Q7.93363 6.08042 7.91995 6.14921Q7.90627 6.218 7.89939 6.28781Q7.89252 6.35761 7.89252 6.42775L7.89252 7.85718L6.42757 7.85718Q6.35744 7.85718 6.28765 7.86405Q6.21785 7.87093 6.14907 7.88461Q6.08028 7.89829 6.01317 7.91865Q5.94606 7.93901 5.88126 7.96584Q5.81647 7.99268 5.75462 8.02574Q5.69277 8.0588 5.63445 8.09777Q5.57614 8.13673 5.52193 8.18122Q5.46772 8.22571 5.41813 8.2753Q5.36854 8.32489 5.32404 8.37911Q5.27955 8.43332 5.24059 8.49163Q5.20163 8.54995 5.16857 8.6118Q5.13551 8.67365 5.10867 8.73844Q5.08183 8.80324 5.06147 8.87035Q5.04111 8.93746 5.02743 9.00624Q5.01375 9.07503 5.00687 9.14482Q5 9.21462 5 9.28475L5 10.7143L25 10.7143L25 9.28475Q25 9.21462 24.9931 9.14482Q24.9862 9.07503 24.9726 9.00624Q24.9589 8.93746 24.9385 8.87035Q24.9182 8.80324 24.8913 8.73844Q24.8645 8.67365 24.8314 8.6118Q24.7984 8.54995 24.7594 8.49163Q24.7204 8.43332 24.676 8.37911Q24.6315 8.32489 24.5819 8.2753Q24.5323 8.22571 24.4781 8.18122Q24.4239 8.13673 24.3655 8.09777Q24.3072 8.0588 24.2454 8.02574Q24.1835 7.99268 24.1187 7.96584Q24.0539 7.93901 23.9868 7.91865Q23.9197 7.89829 23.8509 7.88461Q23.7821 7.87093 23.7124 7.86405Q23.6426 7.85718 23.5724 7.85718L22.1425 7.85718L22.1425 6.42775Q22.1425 6.35761 22.1356 6.28781Q22.1288 6.218 22.1151 6.14921Q22.1014 6.08042 22.081 6.0133Q22.0607 5.94618 22.0338 5.88137Q22.007 5.81657 21.9739 5.75471Q21.9409 5.69285 21.9019 5.63453Q21.8629 5.57621 21.8184 5.522Q21.7739 5.46778 21.7243 5.41818Q21.6747 5.36858 21.6205 5.32408Q21.5663 5.27959 21.508 5.24062Q21.4496 5.20165 21.3878 5.16859Q21.3259 5.13552 21.2611 5.10868Q21.1963 5.08184 21.1292 5.06148Q21.0621 5.04112 20.9933 5.02743Q20.9245 5.01375 20.8547 5.00688Q20.7849 5 20.7148 5L20.7128 5Q20.6426 5 20.5728 5.00688Q20.503 5.01375 20.4342 5.02743Q20.3654 5.04112 20.2983 5.06148Q20.2312 5.08184 20.1664 5.10868Q20.1016 5.13552 20.0397 5.16859Q19.9779 5.20165 19.9195 5.24062Q19.8612 5.27959 19.807 5.32408Q19.7528 5.36858 19.7032 5.41818Q19.6536 5.46778 19.6091 5.52199Q19.5646 5.57621 19.5256 5.63453Q19.4867 5.69285 19.4536 5.75471Q19.4205 5.81657 19.3937 5.88137Q19.3668 5.94618 19.3465 6.0133Q19.3261 6.08042 19.3124 6.14921Q19.2988 6.218 19.2919 6.28781Q19.285 6.35761 19.285 6.42775L19.285 7.85718L10.75 7.85718L10.75 6.42775Q10.75 6.35761 10.7431 6.28781Q10.7363 6.218 10.7226 6.14921Q10.7089 6.08042 10.6885 6.0133Q10.6682 5.94618 10.6413 5.88137Q10.6145 5.81657 10.5814 5.75471Q10.5484 5.69285 10.5094 5.63453Q10.4704 5.57621 10.4259 5.522Q10.3814 5.46778 10.3318 5.41818Q10.2822 5.36858 10.228 5.32408Q10.1738 5.27959 10.1155 5.24062Q10.0572 5.20165 9.9953 5.16859Q9.93344 5.13552 9.86864 5.10868Q9.80384 5.08184 9.73672 5.06148Q9.6696 5.04112 9.60081 5.02743Q9.53201 5.01375 9.46221 5.00688Q9.39241 5 9.32227 5ZM25 12L5 12L5 23.001Q5 23.0992 5.00963 23.1969Q5.01925 23.2947 5.03841 23.391Q5.05757 23.4873 5.08608 23.5813Q5.11458 23.6753 5.15216 23.766Q5.18975 23.8567 5.23604 23.9433Q5.28233 24.0299 5.33689 24.1116Q5.39145 24.1932 5.45375 24.2692Q5.51605 24.3451 5.58549 24.4145Q5.65493 24.4839 5.73085 24.5462Q5.80676 24.6085 5.88841 24.6631Q5.97007 24.7177 6.05668 24.764Q6.14329 24.8103 6.23402 24.8478Q6.32475 24.8854 6.41872 24.9139Q6.5127 24.9424 6.60901 24.9616Q6.70533 24.9807 6.80306 24.9904Q6.9008 25 6.999 25L23.001 25Q23.0992 25 23.1969 24.9904Q23.2947 24.9807 23.391 24.9616Q23.4873 24.9424 23.5813 24.9139Q23.6753 24.8854 23.766 24.8478Q23.8567 24.8103 23.9433 24.764Q24.0299 24.7177 24.1116 24.6631Q24.1932 24.6085 24.2692 24.5462Q24.3451 24.4839 24.4145 24.4145Q24.4839 24.3451 24.5462 24.2692Q24.6085 24.1932 24.6631 24.1116Q24.7177 24.0299 24.764 23.9433Q24.8103 23.8567 24.8478 23.766Q24.8854 23.6753 24.9139 23.5813Q24.9424 23.4873 24.9616 23.391Q24.9807 23.2947 24.9904 23.1969Q25 23.0992 25 23.001L25 12ZM9.71529 13.5714L8.85615 13.5714Q8.75775 13.5714 8.66125 13.5906Q8.56475 13.6098 8.47385 13.6475Q8.38294 13.6851 8.30113 13.7398Q8.21932 13.7945 8.14975 13.864Q8.08017 13.9336 8.02551 14.0154Q7.97084 14.0972 7.93319 14.1881Q7.89554 14.279 7.87634 14.3755Q7.85715 14.472 7.85715 14.5704L7.85715 15.4296Q7.85715 15.528 7.87634 15.6245Q7.89554 15.721 7.93319 15.8119Q7.97084 15.9028 8.02551 15.9846Q8.08017 16.0664 8.14975 16.136Q8.21932 16.2056 8.30113 16.2602Q8.38294 16.3149 8.47385 16.3525Q8.56475 16.3902 8.66125 16.4094Q8.75775 16.4286 8.85615 16.4286L9.71529 16.4286Q9.81368 16.4286 9.91018 16.4094Q10.0067 16.3902 10.0976 16.3525Q10.1885 16.3149 10.2703 16.2602Q10.3521 16.2056 10.4217 16.136Q10.4913 16.0664 10.5459 15.9846Q10.6006 15.9028 10.6382 15.8119Q10.6759 15.721 10.6951 15.6245Q10.7143 15.528 10.7143 15.4296L10.7143 14.5704Q10.7143 14.472 10.6951 14.3755Q10.6759 14.279 10.6382 14.1881Q10.6006 14.0972 10.5459 14.0154Q10.4913 13.9336 10.4217 13.864Q10.3521 13.7945 10.2703 13.7398Q10.1885 13.6851 10.0976 13.6475Q10.0067 13.6098 9.91018 13.5906Q9.81368 13.5714 9.71529 13.5714ZM14.5704 13.5714L15.4296 13.5714Q15.528 13.5714 15.6245 13.5906Q15.721 13.6098 15.8119 13.6475Q15.9028 13.6851 15.9846 13.7398Q16.0664 13.7945 16.136 13.864Q16.2056 13.9336 16.2602 14.0154Q16.3149 14.0972 16.3525 14.1881Q16.3902 14.279 16.4094 14.3755Q16.4286 14.472 16.4286 14.5704L16.4286 15.4296Q16.4286 15.528 16.4094 15.6245Q16.3902 15.721 16.3525 15.8119Q16.3149 15.9028 16.2602 15.9846Q16.2056 16.0664 16.136 16.136Q16.0664 16.2056 15.9846 16.2602Q15.9028 16.3149 15.8119 16.3525Q15.721 16.3902 15.6245 16.4094Q15.528 16.4286 15.4296 16.4286L14.5704 16.4286Q14.472 16.4286 14.3755 16.4094Q14.279 16.3902 14.1881 16.3525Q14.0972 16.3149 14.0154 16.2602Q13.9336 16.2056 13.864 16.136Q13.7945 16.0664 13.7398 15.9846Q13.6851 15.9028 13.6475 15.8119Q13.6098 15.721 13.5906 15.6245Q13.5714 15.528 13.5714 15.4296L13.5714 14.5704Q13.5714 14.472 13.5906 14.3755Q13.6098 14.279 13.6475 14.1881Q13.6851 14.0972 13.7398 14.0154Q13.7945 13.9336 13.864 13.864Q13.9336 13.7945 14.0154 13.7398Q14.0972 13.6851 14.1881 13.6475Q14.279 13.6098 14.3755 13.5906Q14.472 13.5714 14.5704 13.5714ZM21.1438 13.5714L20.2847 13.5714Q20.1863 13.5714 20.0898 13.5906Q19.9933 13.6098 19.9024 13.6475Q19.8115 13.6851 19.7297 13.7398Q19.6479 13.7945 19.5783 13.864Q19.5087 13.9336 19.4541 14.0154Q19.3994 14.0972 19.3617 14.1881Q19.3241 14.279 19.3049 14.3755Q19.2857 14.472 19.2857 14.5704L19.2857 15.4296Q19.2857 15.528 19.3049 15.6245Q19.3241 15.721 19.3617 15.8119Q19.3994 15.9028 19.4541 15.9846Q19.5087 16.0664 19.5783 16.136Q19.6479 16.2056 19.7297 16.2602Q19.8115 16.3149 19.9024 16.3525Q19.9933 16.3902 20.0898 16.4094Q20.1863 16.4286 20.2847 16.4286L21.1438 16.4286Q21.2422 16.4286 21.3387 16.4094Q21.4352 16.3902 21.5261 16.3525Q21.617 16.3149 21.6989 16.2602Q21.7807 16.2056 21.8502 16.136Q21.9198 16.0664 21.9745 15.9846Q22.0291 15.9028 22.0668 15.8119Q22.1045 15.721 22.1237 15.6245Q22.1428 15.528 22.1428 15.4296L22.1428 14.5704Q22.1428 14.472 22.1237 14.3755Q22.1045 14.279 22.0668 14.1881Q22.0291 14.0972 21.9745 14.0154Q21.9198 13.9336 21.8502 13.864Q21.7807 13.7945 21.6989 13.7398Q21.617 13.6851 21.5261 13.6475Q21.4352 13.6098 21.3387 13.5906Q21.2422 13.5714 21.1438 13.5714ZM8.85615 19.2857L9.71529 19.2857Q9.81368 19.2857 9.91018 19.3049Q10.0067 19.3241 10.0976 19.3617Q10.1885 19.3994 10.2703 19.4541Q10.3521 19.5087 10.4217 19.5783Q10.4913 19.6479 10.5459 19.7297Q10.6006 19.8115 10.6382 19.9024Q10.6759 19.9933 10.6951 20.0898Q10.7143 20.1863 10.7143 20.2847L10.7143 21.1438Q10.7143 21.2422 10.6951 21.3387Q10.6759 21.4352 10.6382 21.5261Q10.6006 21.617 10.5459 21.6989Q10.4913 21.7807 10.4217 21.8502Q10.3521 21.9198 10.2703 21.9745Q10.1885 22.0291 10.0976 22.0668Q10.0067 22.1045 9.91018 22.1237Q9.81368 22.1428 9.71529 22.1428L8.85615 22.1428Q8.75775 22.1428 8.66125 22.1237Q8.56475 22.1045 8.47385 22.0668Q8.38294 22.0291 8.30113 21.9745Q8.21932 21.9198 8.14975 21.8502Q8.08017 21.7807 8.02551 21.6989Q7.97084 21.617 7.93319 21.5261Q7.89554 21.4352 7.87634 21.3387Q7.85715 21.2422 7.85715 21.1438L7.85715 20.2847Q7.85715 20.1863 7.87634 20.0898Q7.89554 19.9933 7.93319 19.9024Q7.97084 19.8115 8.02551 19.7297Q8.08017 19.6479 8.14975 19.5783Q8.21932 19.5087 8.30113 19.4541Q8.38294 19.3994 8.47385 19.3617Q8.56475 19.3241 8.66125 19.3049Q8.75775 19.2857 8.85615 19.2857ZM15.4296 19.2857L14.5704 19.2857Q14.472 19.2857 14.3755 19.3049Q14.279 19.3241 14.1881 19.3617Q14.0972 19.3994 14.0154 19.4541Q13.9336 19.5087 13.864 19.5783Q13.7945 19.6479 13.7398 19.7297Q13.6851 19.8115 13.6475 19.9024Q13.6098 19.9933 13.5906 20.0898Q13.5714 20.1863 13.5714 20.2847L13.5714 21.1438Q13.5714 21.2422 13.5906 21.3387Q13.6098 21.4352 13.6475 21.5261Q13.6851 21.617 13.7398 21.6989Q13.7945 21.7807 13.864 21.8502Q13.9336 21.9198 14.0154 21.9745Q14.0972 22.0291 14.1881 22.0668Q14.279 22.1045 14.3755 22.1237Q14.472 22.1428 14.5704 22.1428L15.4296 22.1428Q15.528 22.1428 15.6245 22.1237Q15.721 22.1045 15.8119 22.0668Q15.9028 22.0291 15.9846 21.9745Q16.0664 21.9198 16.136 21.8502Q16.2056 21.7807 16.2602 21.6989Q16.3149 21.617 16.3525 21.5261Q16.3902 21.4352 16.4094 21.3387Q16.4286 21.2422 16.4286 21.1438L16.4286 20.2847Q16.4286 20.1863 16.4094 20.0898Q16.3902 19.9933 16.3525 19.9024Q16.3149 19.8115 16.2602 19.7297Q16.2056 19.6479 16.136 19.5783Q16.0664 19.5087 15.9846 19.4541Q15.9028 19.3994 15.8119 19.3617Q15.721 19.3241 15.6245 19.3049Q15.528 19.2857 15.4296 19.2857ZM20.2847 19.2857L21.1438 19.2857Q21.2422 19.2857 21.3387 19.3049Q21.4352 19.3241 21.5261 19.3617Q21.617 19.3994 21.6989 19.4541Q21.7807 19.5087 21.8502 19.5783Q21.9198 19.6479 21.9745 19.7297Q22.0291 19.8115 22.0668 19.9024Q22.1045 19.9933 22.1237 20.0898Q22.1428 20.1863 22.1428 20.2847L22.1428 21.1438Q22.1428 21.2422 22.1237 21.3387Q22.1045 21.4352 22.0668 21.5261Q22.0291 21.617 21.9745 21.6989Q21.9198 21.7807 21.8502 21.8502Q21.7807 21.9198 21.6989 21.9745Q21.617 22.0291 21.5261 22.0668Q21.4352 22.1045 21.3387 22.1237Q21.2422 22.1428 21.1438 22.1428L20.2847 22.1428Q20.1863 22.1428 20.0898 22.1237Q19.9933 22.1045 19.9024 22.0668Q19.8115 22.0291 19.7297 21.9745Q19.6479 21.9198 19.5783 21.8502Q19.5087 21.7807 19.4541 21.6989Q19.3994 21.617 19.3617 21.5261Q19.3241 21.4352 19.3049 21.3387Q19.2857 21.2422 19.2857 21.1438L19.2857 20.2847Q19.2857 20.1863 19.3049 20.0898Q19.3241 19.9933 19.3617 19.9024Q19.3994 19.8115 19.4541 19.7297Q19.5087 19.6479 19.5783 19.5783Q19.6479 19.5087 19.7297 19.4541Q19.8115 19.3994 19.9024 19.3617Q19.9933 19.3241 20.0898 19.3049Q20.1863 19.2857 20.2847 19.2857Z" id="Rectangle-7-Difference-Union" fill="#D3D3D3" fill-rule="evenodd" stroke="none" />
</svg>
