<svg width="30px" height="30px" viewBox="0 0 30 30">
  <path d="M8.42756 5.09998L18.5724 5.09998Q18.6706 5.09998 18.7684 5.1096Q18.8661 5.11923 18.9624 5.13839Q19.0587 5.15755 19.1527 5.18605Q19.2467 5.21456 19.3374 5.25214Q19.4281 5.28972 19.5147 5.33601Q19.6013 5.38231 19.683 5.43687Q19.7647 5.49143 19.8406 5.55373Q19.9165 5.61603 19.9859 5.68547Q20.0554 5.75491 20.1177 5.83082Q20.18 5.90674 20.2345 5.98839Q20.2891 6.07004 20.3354 6.15665Q20.3817 6.24326 20.4192 6.33399Q20.4568 6.42472 20.4853 6.5187Q20.5138 6.61267 20.533 6.70899Q20.5522 6.80531 20.5618 6.90304Q20.5714 7.00077 20.5714 7.09898L20.5714 22.901Q20.5714 22.9992 20.5618 23.0969Q20.5522 23.1946 20.533 23.291Q20.5138 23.3873 20.4853 23.4813Q20.4568 23.5752 20.4192 23.666Q20.3817 23.7567 20.3354 23.8433Q20.2891 23.9299 20.2345 24.0116Q20.18 24.0932 20.1177 24.1691Q20.0554 24.245 19.9859 24.3145Q19.9165 24.3839 19.8406 24.4462Q19.7647 24.5085 19.683 24.5631Q19.6013 24.6176 19.5147 24.6639Q19.4281 24.7102 19.3374 24.7478Q19.2467 24.7854 19.1527 24.8139Q19.0587 24.8424 18.9624 24.8616Q18.8661 24.8807 18.7684 24.8904Q18.6706 24.9 18.5724 24.9L8.42756 24.9Q8.32935 24.9 8.23162 24.8904Q8.13389 24.8807 8.03757 24.8616Q7.94125 24.8424 7.84728 24.8139Q7.7533 24.7854 7.66257 24.7478Q7.57184 24.7102 7.48524 24.6639Q7.39863 24.6176 7.31697 24.5631Q7.23532 24.5085 7.15941 24.4462Q7.08349 24.3839 7.01405 24.3145Q6.94461 24.245 6.88231 24.1691Q6.82001 24.0932 6.76545 24.0116Q6.71089 23.9299 6.6646 23.8433Q6.6183 23.7567 6.58072 23.666Q6.54314 23.5752 6.51463 23.4813Q6.48613 23.3873 6.46697 23.291Q6.44781 23.1946 6.43818 23.0969Q6.42856 22.9992 6.42856 22.901L6.42856 7.09898Q6.42856 7.00077 6.43818 6.90304Q6.44781 6.80531 6.46697 6.70899Q6.48613 6.61267 6.51463 6.5187Q6.54314 6.42472 6.58072 6.33399Q6.6183 6.24326 6.6646 6.15665Q6.71089 6.07004 6.76545 5.98839Q6.82001 5.90674 6.88231 5.83082Q6.94461 5.75491 7.01405 5.68547Q7.08349 5.61603 7.15941 5.55373Q7.23532 5.49143 7.31697 5.43687Q7.39863 5.38231 7.48524 5.33601Q7.57184 5.28972 7.66257 5.25214Q7.7533 5.21456 7.84728 5.18605Q7.94125 5.15755 8.03757 5.13839Q8.13389 5.11923 8.23162 5.1096Q8.32935 5.09998 8.42756 5.09998ZM8.84186 9.25952L14.8439 9.25952Q14.9422 9.25952 15.0387 9.27872Q15.1352 9.29791 15.2262 9.33557Q15.3171 9.37322 15.3989 9.42788Q15.4807 9.48255 15.5503 9.55212Q15.6198 9.62169 15.6745 9.70351Q15.7292 9.78532 15.7668 9.87622Q15.8045 9.96712 15.8237 10.0636Q15.8428 10.1601 15.8429 10.2585L15.8429 10.2605Q15.8428 10.3589 15.8237 10.4554Q15.8045 10.5519 15.7668 10.6428Q15.7292 10.7337 15.6745 10.8155Q15.6198 10.8973 15.5503 10.9669Q15.4807 11.0365 15.3989 11.0912Q15.3171 11.1458 15.2262 11.1835Q15.1352 11.2211 15.0387 11.2403Q14.9422 11.2595 14.8439 11.2595L8.84186 11.2595Q8.74347 11.2595 8.64697 11.2403Q8.55047 11.2211 8.45956 11.1835Q8.36866 11.1458 8.28685 11.0912Q8.20504 11.0365 8.13546 10.9669Q8.06589 10.8973 8.01123 10.8155Q7.95656 10.7337 7.91891 10.6428Q7.88126 10.5519 7.86206 10.4554Q7.84286 10.3589 7.84286 10.2605L7.84286 10.2585Q7.84286 10.1601 7.86206 10.0636Q7.88126 9.96712 7.91891 9.87622Q7.95656 9.78532 8.01123 9.7035Q8.06589 9.62169 8.13546 9.55212Q8.20504 9.48255 8.28685 9.42788Q8.36866 9.37322 8.45956 9.33557Q8.55047 9.29791 8.64697 9.27872Q8.74347 9.25952 8.84186 9.25952ZM21.5714 22.9L21.5715 11.899Q21.5715 11.8006 21.5907 11.7041Q21.6098 11.6076 21.6475 11.5167Q21.6852 11.4258 21.7398 11.344Q21.7945 11.2622 21.8641 11.1926Q21.9336 11.1231 22.0154 11.0684Q22.0973 11.0137 22.1882 10.9761Q22.2791 10.9384 22.3756 10.9192Q22.4721 10.9 22.5705 10.9L22.5725 10.9Q22.7712 10.9 22.9548 10.9761Q23.1383 11.0521 23.2789 11.1926Q23.4194 11.3331 23.4954 11.5167Q23.5715 11.7003 23.5715 11.899L23.5714 22.9L21.5714 22.9ZM18.1581 13.5857L8.84186 13.5857Q8.74347 13.5857 8.64697 13.6049Q8.55047 13.6241 8.45956 13.6618Q8.36866 13.6994 8.28685 13.7541Q8.20504 13.8087 8.13546 13.8783Q8.06589 13.9479 8.01123 14.0297Q7.95656 14.1115 7.91891 14.2024Q7.88126 14.2933 7.86206 14.3898Q7.84286 14.4863 7.84286 14.5847L7.84286 14.5867Q7.84286 14.6851 7.86206 14.7816Q7.88126 14.8781 7.91891 14.969Q7.95656 15.0599 8.01123 15.1417Q8.06589 15.2235 8.13546 15.2931Q8.20504 15.3627 8.28685 15.4174Q8.36866 15.472 8.45956 15.5097Q8.55047 15.5473 8.64697 15.5665Q8.74347 15.5857 8.84186 15.5857L18.1581 15.5857Q18.2565 15.5857 18.353 15.5665Q18.4495 15.5473 18.5404 15.5097Q18.6314 15.472 18.7132 15.4174Q18.795 15.3627 18.8645 15.2931Q18.9341 15.2235 18.9888 15.1417Q19.0434 15.0599 19.0811 14.969Q19.1188 14.8781 19.138 14.7816Q19.1571 14.6851 19.1571 14.5867L19.1571 14.5847Q19.1571 14.4863 19.138 14.3898Q19.1188 14.2933 19.0811 14.2024Q19.0434 14.1115 18.9888 14.0297Q18.9341 13.9479 18.8645 13.8783Q18.795 13.8087 18.7132 13.7541Q18.6313 13.6994 18.5404 13.6618Q18.4495 13.6241 18.353 13.6049Q18.2565 13.5857 18.1581 13.5857ZM8.84186 17.0999L18.1581 17.0999Q18.2565 17.0999 18.353 17.1191Q18.4495 17.1383 18.5404 17.176Q18.6314 17.2136 18.7132 17.2683Q18.795 17.323 18.8645 17.3925Q18.9341 17.4621 18.9888 17.5439Q19.0434 17.6257 19.0811 17.7166Q19.1188 17.8075 19.138 17.904Q19.1571 18.0006 19.1571 18.0989L19.1571 18.1009Q19.1571 18.1993 19.138 18.2958Q19.1188 18.3923 19.0811 18.4832Q19.0434 18.5741 18.9888 18.656Q18.9341 18.7378 18.8645 18.8073Q18.795 18.8769 18.7132 18.9316Q18.6313 18.9862 18.5404 19.0239Q18.4495 19.0615 18.353 19.0807Q18.2565 19.0999 18.1581 19.0999L8.84186 19.0999Q8.74347 19.0999 8.64697 19.0807Q8.55047 19.0615 8.45956 19.0239Q8.36866 18.9862 8.28685 18.9316Q8.20504 18.8769 8.13546 18.8073Q8.06589 18.7378 8.01123 18.656Q7.95656 18.5741 7.91891 18.4832Q7.88126 18.3923 7.86206 18.2958Q7.84286 18.1993 7.84286 18.1009L7.84286 18.0989Q7.84286 18.0006 7.86206 17.904Q7.88126 17.8075 7.91891 17.7166Q7.95656 17.6257 8.01123 17.5439Q8.06589 17.4621 8.13546 17.3925Q8.20504 17.323 8.28685 17.2683Q8.36866 17.2136 8.45956 17.176Q8.55047 17.1383 8.64697 17.1191Q8.74347 17.0999 8.84186 17.0999ZM22.5714 24.9001L21.5714 22.9001L23.5714 22.9001L22.5714 24.9001Z" id="Rectangle-Difference-Union" fill="#D3D3D3" fill-rule="evenodd" stroke="none" />
</svg>
