<svg width="250px" height="131px" viewBox="0 0 250 131" xmlns:xlink="http://www.w3.org/1999/xlink">
    <defs>
        <linearGradient x1="0" y1="0.5" x2="1" y2="0.5" id="gradient_1">
        <stop offset="0" stop-color="#E5E5E5" />
        <stop offset="1" stop-color="#DCDADA" />
        </linearGradient>
        <filter filterUnits="userSpaceOnUse" color-interpolation-filters="sRGB" id="filter_1">
        <feFlood flood-opacity="0" result="BackgroundImageFix" />
        <feColorMatrix in="SourceAlpha" type="matrix" values="0 0 0 0 0 0 0 0 0 0 0 0 0 0 0 0 0 0 127 0" />
        <feOffset dx="0" dy="2" />
        <feGaussianBlur stdDeviation="2" />
        <feColorMatrix type="matrix" values="0 0 0 0 0 0 0 0 0 0 0 0 0 0 0 0 0 0 0.2509804 0" />
        <feBlend mode="normal" in2="BackgroundImageFix" result="effect0_dropShadow" />
        <feBlend mode="normal" in="SourceGraphic" in2="effect0_dropShadow" result="shape" />
        </filter>
        <path d="M0 0L210 0L210 90L0 90L0 0Z" id="path_1" />
        <clipPath id="clip_1">
        <use xlink:href="#path_1" />
        </clipPath>
    </defs>
    <g id="Todo-illustration">
        <g filter="url(#filter_1)">
        <g id="Todo-item">
            <g id="Background">
            <use stroke="none" fill="#D3D3D3" xlink:href="#path_1" fill-rule="evenodd" />
            <g clip-path="url(#clip_1)">
                <use xlink:href="#path_1" fill="none" stroke="#B8B8B8" stroke-width="2" />
            </g>
            </g>
            <path d="M9 12L102 12L102 24L9 24L9 12Z" id="Titile" fill="url(#gradient_1)" fill-rule="evenodd" stroke="none" />
            <path d="M9 33L200 33L200 80L9 80L9 33Z" id="Description" fill="url(#gradient_1)" fill-rule="evenodd" stroke="none" />
            <path d="M0 0L210 0L210 6L0 6L0 0Z" id="Category" fill="#B8B8B8" fill-rule="evenodd" stroke="none" />
        </g>
        </g>
        <g filter="url(#filter_1)">
        <g id="Todo-item-Copy" transform="translate(20 20.000092)">
            <g id="Background">
            <use stroke="none" fill="#D3D3D3" xlink:href="#path_1" fill-rule="evenodd" />
            <g clip-path="url(#clip_1)">
                <use xlink:href="#path_1" fill="none" stroke="#B8B8B8" stroke-width="2" />
            </g>
            </g>
            <path d="M9 12L102 12L102 24L9 24L9 12Z" id="Titile" fill="url(#gradient_1)" fill-rule="evenodd" stroke="none" />
            <path d="M9 33L200 33L200 80L9 80L9 33Z" id="Description" fill="url(#gradient_1)" fill-rule="evenodd" stroke="none" />
            <path d="M0 0L210 0L210 6L0 6L0 0Z" id="Category" fill="#B8B8B8" fill-rule="evenodd" stroke="none" />
        </g>
        </g>
        <g filter="url(#filter_1)">
        <g id="Todo-item-Copy-2" transform="translate(40 40.000122)">
            <g id="Background">
            <use stroke="none" fill="#D3D3D3" xlink:href="#path_1" fill-rule="evenodd" />
            <g clip-path="url(#clip_1)">
                <use xlink:href="#path_1" fill="none" stroke="#B8B8B8" stroke-width="2" />
            </g>
            </g>
            <path d="M9 12L102 12L102 24L9 24L9 12Z" id="Titile" fill="url(#gradient_1)" fill-rule="evenodd" stroke="none" />
            <path d="M9 33L200 33L200 80L9 80L9 33Z" id="Description" fill="url(#gradient_1)" fill-rule="evenodd" stroke="none" />
            <path d="M0 0L210 0L210 6L0 6L0 0Z" id="Category" fill="#B8B8B8" fill-rule="evenodd" stroke="none" />
        </g>
        </g>
    </g>
</svg>
