<svg width="30px" height="30px" viewBox="0 0 30 30">
  <path d="M7.13388 15.8661L7.46317 16.1954L11 19.7322L20.4936 10.2386L22.8661 7.86612C23.1102 7.62204 23.4048 7.5 23.75 7.5C24.0952 7.5 24.3898 7.62204 24.6339 7.86612C24.878 8.11019 25 8.40482 25 8.75C25 9.09518 24.878 9.3898 24.6339 9.63388L11.8839 22.3839C11.6398 22.628 11.3452 22.75 11 22.75C10.6548 22.75 10.3602 22.628 10.1161 22.3839L5.36612 17.6339C5.24891 17.5167 5.15858 17.3815 5.09515 17.2284C5.03172 17.0752 5 16.9158 5 16.75C5 16.5842 5.03172 16.4248 5.09515 16.2716C5.15858 16.1185 5.24891 15.9833 5.36612 15.8661C5.48333 15.7489 5.6185 15.6586 5.77165 15.5952C5.92479 15.5317 6.08424 15.5 6.25 15.5C6.41576 15.5 6.57521 15.5317 6.72835 15.5952C6.8815 15.6586 7.01667 15.7489 7.13388 15.8661L7.13388 15.8661Z" id="Vector" fill="#D3D3D3" fill-rule="evenodd" stroke="none" />
</svg>
