<svg width="30px" height="30px" viewBox="0 0 30 30">
  <path d="M20.0724 5.19998L9.92756 5.19998Q9.82935 5.19998 9.73162 5.20961Q9.63389 5.21923 9.53757 5.23839Q9.44126 5.25755 9.34728 5.28606Q9.2533 5.31457 9.16257 5.35215Q9.07185 5.38973 8.98524 5.43602Q8.89863 5.48231 8.81697 5.53687Q8.73532 5.59143 8.65941 5.65373Q8.58349 5.71603 8.51405 5.78547Q8.44461 5.85492 8.38231 5.93083Q8.32001 6.00674 8.26545 6.0884Q8.21089 6.17005 8.1646 6.25666Q8.1183 6.34327 8.08072 6.434Q8.04314 6.52473 8.01463 6.6187Q7.98613 6.71268 7.96697 6.809Q7.94781 6.90531 7.93818 7.00305Q7.92856 7.10078 7.92856 7.19898L7.92856 23.001Q7.92856 23.0992 7.93818 23.197Q7.94781 23.2947 7.96697 23.391Q7.98613 23.4873 8.01463 23.5813Q8.04314 23.6753 8.08072 23.766Q8.1183 23.8567 8.1646 23.9433Q8.21089 24.0299 8.26545 24.1116Q8.32001 24.1933 8.38231 24.2692Q8.44461 24.3451 8.51405 24.4145Q8.58349 24.484 8.65941 24.5463Q8.73532 24.6086 8.81697 24.6631Q8.89863 24.7177 8.98524 24.764Q9.07184 24.8103 9.16257 24.8478Q9.2533 24.8854 9.34728 24.9139Q9.44125 24.9424 9.53757 24.9616Q9.63389 24.9808 9.73162 24.9904Q9.82935 25 9.92756 25L20.0724 25Q20.1706 25 20.2684 24.9904Q20.3661 24.9808 20.4624 24.9616Q20.5587 24.9424 20.6527 24.9139Q20.7467 24.8854 20.8374 24.8478Q20.9282 24.8103 21.0148 24.764Q21.1014 24.7177 21.183 24.6631Q21.2647 24.6086 21.3406 24.5463Q21.4165 24.484 21.4859 24.4145Q21.5554 24.3451 21.6177 24.2692Q21.68 24.1933 21.7345 24.1116Q21.7891 24.0299 21.8354 23.9433Q21.8817 23.8567 21.9193 23.766Q21.9569 23.6753 21.9854 23.5813Q22.0139 23.4873 22.033 23.391Q22.0522 23.2947 22.0618 23.197Q22.0714 23.0992 22.0714 23.001L22.0714 7.19898Q22.0714 7.10078 22.0618 7.00305Q22.0522 6.90531 22.033 6.809Q22.0139 6.71268 21.9854 6.6187Q21.9569 6.52473 21.9193 6.434Q21.8817 6.34327 21.8354 6.25666Q21.7891 6.17005 21.7345 6.0884Q21.68 6.00674 21.6177 5.93083Q21.5554 5.85492 21.4859 5.78547Q21.4165 5.71603 21.3406 5.65373Q21.2647 5.59143 21.183 5.53687Q21.1014 5.48231 21.0148 5.43602Q20.9282 5.38973 20.8374 5.35215Q20.7467 5.31457 20.6527 5.28606Q20.5587 5.25755 20.4624 5.23839Q20.3661 5.21923 20.2684 5.20961Q20.1706 5.19998 20.0724 5.19998ZM16.3439 9.35953L10.3419 9.35953Q10.2435 9.35953 10.147 9.37872Q10.0505 9.39792 9.95956 9.43557Q9.86866 9.47322 9.78685 9.52789Q9.70504 9.58255 9.63546 9.65213Q9.56589 9.7217 9.51123 9.80351Q9.45656 9.88532 9.41891 9.97623Q9.38126 10.0671 9.36206 10.1636Q9.34286 10.2601 9.34286 10.3585L9.34286 10.3605Q9.34286 10.4589 9.36206 10.5554Q9.38126 10.6519 9.41891 10.7428Q9.45656 10.8337 9.51123 10.9155Q9.56589 10.9974 9.63546 11.0669Q9.70504 11.1365 9.78685 11.1912Q9.86866 11.2458 9.95956 11.2835Q10.0505 11.3211 10.147 11.3403Q10.2435 11.3595 10.3419 11.3595L16.3439 11.3595Q16.4423 11.3595 16.5388 11.3403Q16.6353 11.3211 16.7262 11.2835Q16.8171 11.2458 16.8989 11.1912Q16.9807 11.1365 17.0503 11.0669Q17.1198 10.9974 17.1745 10.9155Q17.2292 10.8337 17.2668 10.7428Q17.3045 10.6519 17.3237 10.5554Q17.3429 10.4589 17.3429 10.3605L17.3429 10.3585Q17.3429 10.2601 17.3237 10.1636Q17.3045 10.0671 17.2668 9.97623Q17.2292 9.88532 17.1745 9.80351Q17.1198 9.7217 17.0503 9.65213Q16.9807 9.58255 16.8989 9.52789Q16.8171 9.47322 16.7262 9.43557Q16.6353 9.39792 16.5388 9.37872Q16.4423 9.35953 16.3439 9.35953ZM10.3419 13.6857L19.6582 13.6857Q19.7566 13.6857 19.8531 13.7049Q19.9496 13.7241 20.0405 13.7618Q20.1314 13.7994 20.2132 13.8541Q20.295 13.9088 20.3646 13.9783Q20.4341 14.0479 20.4888 14.1297Q20.5435 14.2115 20.5811 14.3024Q20.6188 14.3933 20.638 14.4898Q20.6572 14.5863 20.6572 14.6847L20.6572 14.6867Q20.6572 14.7851 20.638 14.8816Q20.6188 14.9781 20.5811 15.069Q20.5435 15.1599 20.4888 15.2417Q20.4341 15.3236 20.3646 15.3931Q20.295 15.4627 20.2132 15.5174Q20.1314 15.572 20.0405 15.6097Q19.9496 15.6473 19.8531 15.6665Q19.7566 15.6857 19.6582 15.6857L10.3419 15.6857Q10.2435 15.6857 10.147 15.6665Q10.0505 15.6473 9.95956 15.6097Q9.86866 15.572 9.78685 15.5174Q9.70504 15.4627 9.63546 15.3931Q9.56589 15.3236 9.51123 15.2417Q9.45656 15.1599 9.41891 15.069Q9.38126 14.9781 9.36206 14.8816Q9.34286 14.7851 9.34286 14.6867L9.34286 14.6847Q9.34286 14.5863 9.36206 14.4898Q9.38126 14.3933 9.41891 14.3024Q9.45656 14.2115 9.51123 14.1297Q9.56589 14.0479 9.63546 13.9783Q9.70504 13.9088 9.78685 13.8541Q9.86866 13.7994 9.95956 13.7618Q10.0505 13.7241 10.147 13.7049Q10.2435 13.6857 10.3419 13.6857ZM19.6582 17.2L10.3419 17.2Q10.2435 17.2 10.147 17.2192Q10.0505 17.2384 9.95956 17.276Q9.86866 17.3137 9.78685 17.3683Q9.70504 17.423 9.63546 17.4926Q9.56589 17.5622 9.51123 17.644Q9.45656 17.7258 9.41891 17.8167Q9.38126 17.9076 9.36206 18.0041Q9.34286 18.1006 9.34286 18.199L9.34286 18.201Q9.34286 18.2994 9.36206 18.3959Q9.38126 18.4924 9.41891 18.5833Q9.45656 18.6742 9.51123 18.756Q9.56589 18.8378 9.63546 18.9074Q9.70504 18.977 9.78685 19.0316Q9.86866 19.0863 9.95956 19.1239Q10.0505 19.1616 10.147 19.1808Q10.2435 19.2 10.3419 19.2L19.6582 19.2Q19.7566 19.2 19.8531 19.1808Q19.9496 19.1616 20.0405 19.1239Q20.1314 19.0863 20.2132 19.0316Q20.295 18.977 20.3646 18.9074Q20.4341 18.8378 20.4888 18.756Q20.5435 18.6742 20.5811 18.5833Q20.6188 18.4924 20.638 18.3959Q20.6572 18.2994 20.6572 18.201L20.6572 18.199Q20.6572 18.1006 20.638 18.0041Q20.6188 17.9076 20.5811 17.8167Q20.5435 17.7258 20.4888 17.644Q20.4341 17.5622 20.3646 17.4926Q20.295 17.423 20.2132 17.3683Q20.1314 17.3137 20.0405 17.276Q19.9496 17.2384 19.8531 17.2192Q19.7566 17.2 19.6582 17.2Z" id="Rectangle-Difference" fill="#D3D3D3" fill-rule="evenodd" stroke="none" />
</svg>
