<svg width="30px" height="30px" viewBox="0 0 30 30">
  <path d="M12.599 5L17.401 5Q17.46 5 17.5179 5.01151Q17.5757 5.02302 17.6302 5.0456Q17.6847 5.06817 17.7338 5.10095Q17.7828 5.13373 17.8246 5.17544Q17.8663 5.21716 17.899 5.26622Q17.9318 5.31527 17.9544 5.36978Q17.977 5.42428 17.9885 5.48215Q18 5.54001 18 5.59901L18 6.20001L20.101 6.20001Q20.1943 6.20001 20.2871 6.20916Q20.38 6.2183 20.4715 6.2365Q20.563 6.2547 20.6523 6.28178Q20.7415 6.30886 20.8277 6.34456Q20.9139 6.38027 20.9962 6.42424Q21.0785 6.46822 21.156 6.52005Q21.2336 6.57188 21.3057 6.63106Q21.3778 6.69025 21.4438 6.75621Q21.5098 6.82218 21.5689 6.8943Q21.6281 6.96641 21.68 7.04398Q21.7318 7.12155 21.7758 7.20383Q21.8197 7.2861 21.8554 7.37229Q21.8911 7.45848 21.9182 7.54776Q21.9453 7.63703 21.9635 7.72853Q21.9817 7.82003 21.9909 7.91287Q22 8.00572 22 8.09901L22 10L8 10L8 8.09901Q8 8.00572 8.00914 7.91287Q8.01829 7.82003 8.03649 7.72853Q8.05469 7.63703 8.08177 7.54776Q8.10885 7.45848 8.14455 7.37229Q8.18025 7.2861 8.22423 7.20383Q8.26821 7.12155 8.32004 7.04398Q8.37187 6.96641 8.43105 6.8943Q8.49024 6.82218 8.5562 6.75621Q8.62217 6.69025 8.69428 6.63106Q8.7664 6.57188 8.84397 6.52005Q8.92154 6.46822 9.00381 6.42424Q9.08609 6.38027 9.17228 6.34456Q9.25847 6.30886 9.34775 6.28178Q9.43702 6.2547 9.52852 6.2365Q9.62002 6.2183 9.71286 6.20916Q9.8057 6.20001 9.89899 6.20001L12 6.20001L12 5.59901Q12 5.54001 12.0115 5.48215Q12.023 5.42428 12.0456 5.36978Q12.0682 5.31527 12.1009 5.26622Q12.1337 5.21716 12.1754 5.17544Q12.2172 5.13373 12.2662 5.10095Q12.3153 5.06817 12.3698 5.0456Q12.4243 5.02302 12.4821 5.01151Q12.54 5 12.599 5ZM8 11L22 11L22 23.001Q22 23.0992 21.9904 23.1969Q21.9807 23.2947 21.9616 23.391Q21.9424 23.4873 21.9139 23.5813Q21.8854 23.6753 21.8478 23.766Q21.8103 23.8567 21.764 23.9433Q21.7177 24.0299 21.6631 24.1116Q21.6085 24.1932 21.5462 24.2692Q21.4839 24.3451 21.4145 24.4145Q21.3451 24.4839 21.2691 24.5462Q21.1932 24.6085 21.1116 24.6631Q21.0299 24.7177 20.9433 24.764Q20.8567 24.8103 20.766 24.8478Q20.6753 24.8854 20.5813 24.9139Q20.4873 24.9424 20.391 24.9616Q20.2947 24.9807 20.1969 24.9904Q20.0992 25 20.001 25L9.999 25Q9.90079 25 9.80306 24.9904Q9.70533 24.9807 9.60901 24.9616Q9.5127 24.9424 9.41872 24.9139Q9.32474 24.8854 9.23401 24.8478Q9.14329 24.8103 9.05668 24.764Q8.97007 24.7177 8.88841 24.6631Q8.80676 24.6085 8.73085 24.5462Q8.65493 24.4839 8.58549 24.4145Q8.51605 24.3451 8.45375 24.2692Q8.39145 24.1932 8.33689 24.1116Q8.28233 24.0299 8.23604 23.9433Q8.18974 23.8567 8.15216 23.766Q8.11458 23.6753 8.08608 23.5813Q8.05757 23.4873 8.03841 23.391Q8.01925 23.2947 8.00963 23.1969Q8 23.0992 8 23.001L8 11ZM10.999 13L11.001 13Q11.0994 13 11.1959 13.0192Q11.2924 13.0384 11.3833 13.076Q11.4742 13.1137 11.556 13.1684Q11.6378 13.223 11.7074 13.2926Q11.777 13.3622 11.8316 13.444Q11.8863 13.5258 11.924 13.6167Q11.9616 13.7076 11.9808 13.8041Q12 13.9006 12 13.999L12 22.001Q12 22.0994 11.9808 22.1959Q11.9616 22.2924 11.924 22.3833Q11.8863 22.4742 11.8316 22.556Q11.777 22.6378 11.7074 22.7074Q11.6378 22.777 11.556 22.8316Q11.4742 22.8863 11.3833 22.924Q11.2924 22.9616 11.1959 22.9808Q11.0994 23 11.001 23L10.999 23Q10.9006 23 10.8041 22.9808Q10.7076 22.9616 10.6167 22.924Q10.5258 22.8863 10.444 22.8316Q10.3622 22.777 10.2926 22.7074Q10.223 22.6378 10.1684 22.556Q10.1137 22.4742 10.076 22.3833Q10.0384 22.2924 10.0192 22.1959Q10 22.0994 10 22.001L10 13.999Q10 13.9006 10.0192 13.8041Q10.0384 13.7076 10.076 13.6167Q10.1137 13.5258 10.1684 13.444Q10.223 13.3622 10.2926 13.2926Q10.3622 13.223 10.444 13.1684Q10.5258 13.1137 10.6167 13.076Q10.7076 13.0384 10.8041 13.0192Q10.9006 13 10.999 13ZM15.001 13L14.999 13Q14.9006 13 14.8041 13.0192Q14.7076 13.0384 14.6167 13.076Q14.5258 13.1137 14.444 13.1684Q14.3622 13.223 14.2926 13.2926Q14.223 13.3622 14.1684 13.444Q14.1137 13.5258 14.076 13.6167Q14.0384 13.7076 14.0192 13.8041Q14 13.9006 14 13.999L14 22.001Q14 22.0994 14.0192 22.1959Q14.0384 22.2924 14.076 22.3833Q14.1137 22.4742 14.1684 22.556Q14.223 22.6378 14.2926 22.7074Q14.3622 22.777 14.444 22.8316Q14.5258 22.8863 14.6167 22.924Q14.7076 22.9616 14.8041 22.9808Q14.9006 23 14.999 23L15.001 23Q15.0994 23 15.1959 22.9808Q15.2924 22.9616 15.3833 22.924Q15.4742 22.8863 15.556 22.8316Q15.6378 22.777 15.7074 22.7074Q15.777 22.6378 15.8316 22.556Q15.8863 22.4742 15.924 22.3833Q15.9616 22.2924 15.9808 22.1959Q16 22.0994 16 22.001L16 13.999Q16 13.9006 15.9808 13.8041Q15.9616 13.7076 15.924 13.6167Q15.8863 13.5258 15.8316 13.444Q15.777 13.3622 15.7074 13.2926Q15.6378 13.223 15.556 13.1684Q15.4742 13.1137 15.3833 13.076Q15.2924 13.0384 15.1959 13.0192Q15.0994 13 15.001 13ZM18.999 13L19.001 13Q19.0994 13 19.1959 13.0192Q19.2924 13.0384 19.3833 13.076Q19.4742 13.1137 19.556 13.1684Q19.6378 13.223 19.7074 13.2926Q19.777 13.3622 19.8316 13.444Q19.8863 13.5258 19.924 13.6167Q19.9616 13.7076 19.9808 13.8041Q20 13.9006 20 13.999L20 22.001Q20 22.0994 19.9808 22.1959Q19.9616 22.2924 19.924 22.3833Q19.8863 22.4742 19.8316 22.556Q19.777 22.6378 19.7074 22.7074Q19.6378 22.777 19.556 22.8316Q19.4742 22.8863 19.3833 22.924Q19.2924 22.9616 19.1959 22.9808Q19.0994 23 19.001 23L18.999 23Q18.9006 23 18.8041 22.9808Q18.7076 22.9616 18.6167 22.924Q18.5258 22.8863 18.444 22.8316Q18.3622 22.777 18.2926 22.7074Q18.223 22.6378 18.1684 22.556Q18.1137 22.4742 18.076 22.3833Q18.0384 22.2924 18.0192 22.1959Q18 22.0994 18 22.001L18 13.999Q18 13.9006 18.0192 13.8041Q18.0384 13.7076 18.076 13.6167Q18.1137 13.5258 18.1684 13.444Q18.223 13.3622 18.2926 13.2926Q18.3622 13.223 18.444 13.1684Q18.5258 13.1137 18.6167 13.076Q18.7076 13.0384 18.8041 13.0192Q18.9006 13 18.999 13Z" id="Rectangle-Difference-Union" fill="#D3D3D3" fill-rule="evenodd" stroke="none" />
</svg>
